<?xml version="1.0" encoding="UTF-8"?>
<svg width="800" height="324" fill="none" version="1.1" xmlns="http://www.w3.org/2000/svg"><g transform="matrix(6.7045 0 0 6.7045 0 -3.5302)"><path d="m32 32.3h-2.6c-2.1 0-4.1 1.8-4 3.9a4 4 0 0 0 4 3.9h2.6c2.1 0 4.1-1.8 4-4a4 4 0 0 0-4-3.8zm21.3-18.8a4 4 0 0 0-4 3.8v9.3c0 2 1.8 4 4 3.9 2.1-0.1 4-1.7 4-4v-9.2c0-2-1.9-4-4-3.8z" fill="#f08d52"/><path d="m48.2 23.2c-0.3-2-0.8-4-1.7-5.8l-1.9-3.4c-1.1-1.5-2.2-2.4-3.4-2.6-0.5 0-1 0-1.5 0.2l-0.3-0.1c-0.9-0.2-1.7 0.1-2.5 0.8a10 10 0 0 0-2.3 4.2 43 43 0 0 0-1 13c0 3 0.5 5.5 1.3 7.2 1.1 2.4 2.7 3.5 4.9 3.5a6 6 0 0 0 2.7-0.6 5 5 0 0 0 2.2-1.6 12 12 0 0 0 2.5-4.7 23.9 23.9 0 0 0 1-10.2zm-5.5-8.2-0.3-0.3-0.6-0.5v-0.2l1 1zm-2 2.3 0.3-1c0.3 0.2 0.5 0.6 0.7 1l0.4 0.9a1 1 0 0 0-0.9-0.1 0.9 0.9 0 0 0-0.6 0.5v0.2c0-0.6 0-1 0.2-1.5zm-0.3 2.1 0.1-0.4v0.3c0.3 0.9 0.5 1.8 0.5 2.7l-0.1 2.8-0.5 4a37 37 0 0 1 0-9.4zm-3.2-3.6-0.1 0.5-0.1 0.4a37.2 37.2 0 0 0-1.2 9.8v5.5l-0.2-2.4a46.7 46.7 0 0 1 1.7-14.3zm2 20.6a0.5 0.5 0 0 1-0.5-0.2l-0.5-1.3a131.2 131.2 0 0 1-0.1-12 39.7 39.7 0 0 0 0.7 8.7c0 0.3 0.2 0.6 0.3 0.8l0.4 0.7c0.1 0.2 0.3 0.4 0.6 0.5a1.2 1.2 0 0 0 1.3-0.1l-0.5 1c-0.5 1.3-1.1 1.9-1.7 2zm7-8.7a23 23 0 0 1-1 5.1c-1 3.5-2.8 5.4-5.1 5.5 1-0.3 2-1.3 2.7-2.9a18 18 0 0 0 1.5-5.6 47.3 47.3 0 0 0 0.4-10.1 12.8 12.8 0 0 0-1.7-4.2 22 22 0 0 1 1.6 2.7 18 18 0 0 1 1.6 9.5zm-10.6-17.1c0.2 0.4 0.8 0 0.5-0.3a10 10 0 0 0-2.4-2.6c-0.3-0.3-0.8 0.1-0.5 0.4 1 0.7 1.8 1.6 2.4 2.5zm4.6-0.2v-4.8a0.3 0.3 0 0 0-0.5 0l-0.1 0.2v4.6a0.3 0.3 0 0 0 0 0.2 0.3 0.3 0 0 0 0.3 0 0.3 0.3 0 0 0 0.2 0 0.3 0.3 0 0 0 0.1-0.2zm5.2 1.6 1.6-1.4c0.3-0.3-0.2-0.8-0.5-0.5l-1.5 1.5c-0.3 0.3 0.1 0.8 0.4 0.5z" fill="#231f20"/><path d="m77.2 29.5v-0.2h-0.2c-0.6-0.5-1.5-0.2-2.3 0.6a22 22 0 0 0-6.2 15.5v0.5l0.5-0.2 0.4-0.2-0.1 1c-0.2 1 0.2 1.9 0.9 2h0.2a9.1 9.1 0 0 0 4.5-4.4c1-2 1.4-4.1 1.7-6 0.4-2.8 0.6-5.7 0.6-8.6zm-8 15.3m6.8-6.8a19 19 0 0 1-1.7 5.8 8.6 8.6 0 0 1-4 4c-0.3-0.2-0.3-0.8-0.2-1.2l0.2-1.5a11 11 0 0 0 4.1-5.1c1-2.4 1.4-5 1.8-7.5l0.1-1-0.8 0.7-0.8 1v-0.7l-0.3 1-1.2 1.5-0.6-0.3a41 41 0 0 0-1.2 3.3c-0.9 1.5-1.5 3.1-2 4.8a21 21 0 0 1 5.9-12.4c0.1-0.2 0.8-0.8 1.3-0.7a57 57 0 0 1-0.6 8.3zm-3.6 2.1c-0.5 1.2-1 2.3-1.8 3.3a41 41 0 0 1 1.4-5.2l1.6-2.6-1.6 4.4zm2-4.5 0.1-1.2 0.8-1a25 25 0 0 1-1.5 6.3c-0.5 1.2-1.2 2.2-2 3.2a18 18 0 0 0 2.5-7.3z" fill="#4780b5"/><path d="m58.4 9.4h0.3c1.3 0.6 2.1 1.2 2.4 2h0.6l2.3-0.4c3 0 5.3 2 7 5.7 0.4 0.5 0.6 1.2 0.6 1.9v2.1l-1 3c-1 1.8-2.5 2.7-4.2 2.7 0 0.5-0.6 1-2 1.3a38 38 0 0 1 6.6 11.4c-0.6 0.5-1 0.7-1.6 0.7-1.4 0-3.1-1.8-5.2-5.6-3-3.6-4.8-5.4-5.2-5.4-0.3 0.6-0.5 1.7-0.5 3.5v1.9a11 11 0 0 0-0.7 3.3 0.2 0.2 0 0 1 0.2 0 0.2 0.2 0 0 1 0 0.2c-1.5 0.5-2.5 0.8-3 0.8a5 5 0 0 1-1-3.1c0.3-6.3 0.9-11.9 1.7-16.7 0.5-6 1-9.1 1.6-9.1l1.2-0.2zm2.1 3.3c0 2.6-0.3 7-1 13 0.8-0.5 3-1.2 6.4-2.2 0.4 0 0.8-0.9 1-2.7l-0.2-1v-1.8a9.4 9.4 0 0 0-4-4.8l-1.4-0.4h-0.8z" fill="#231f20"/><path d="m27.7 10.8c-0.8 0.1-1.5 0.3-2.2 0.8l-4.8-0.1c-3.2-0.2-6.4-0.8-9.7-0.9-2.1 0-4.3 0.4-6.2 1.3-3 1.5-4 4.9-2.3 7.7a4 4 0 0 0 2 1.6c0.7 0.3 1.6 0.4 2.5 0.2l0.3-0.1 1.4 2 0.1 0.1c-0.9 4.4-1.6 8.8-1 13.2 0.1 1.6 1 3.3 2.9 3.7 1.6 0.4 3.7-0.2 4.5-1.8l1-2.5 1.2 0.2c1.6 0 3.6-1.1 3.9-2.9a31.5 31.5 0 0 0-0.1-11.2l4-0.9c2-0.4 4.4-0.9 5.7-2.5 0.5-0.6 0.9-1.3 1-2 1.1-2.8-0.9-6-4.2-5.9z" fill="#00c6c6"/><path d="m24.8 14.8 0.5 0.6 0.2 0.8v4.1c0 0.4-0.1 0.7-0.3 1 0 0.2-0.2 0.3-0.3 0.4a1 1 0 0 1-0.5 0.2h-2.8l-2.2 0.1h-2a1 1 0 0 0-0.4 0c-0.4 0.1-0.6 0.3-0.6 0.6a22.3 22.3 0 0 1-0.3 1.7 275.6 275.6 0 0 1 0.3 11v1.7a30.2 30.2 0 0 1 0.1 3c0 0.6-0.3 1-0.9 1a15.8 15.8 0 0 1-2.4 0.2h-2.6a2 2 0 0 1-0.5 0 0.7 0.7 0 0 1-0.4-0.3l-0.2-0.4v-0.5a251.1 251.1 0 0 1-0.1-8 608 608 0 0 1-0.4-9.1c0-0.4-0.2-0.6-0.7-0.6h-1.6a8 8 0 0 0-1.2 0h-3.2a12.5 12.5 0 0 1-1.4-0.1c-0.2 0-0.3-0.2-0.4-0.3a1.4 1.4 0 0 1-0.4-1 60.5 60.5 0 0 0-0.1-4.3v-0.6c0-0.3 0.2-0.6 0.4-0.8s0.4-0.4 0.7-0.4l0.7-0.1a30.2 30.2 0 0 1 3.8 0h0.8a157 157 0 0 1 10.4-0.1l3.7-0.1h3.2a1.5 1.5 0 0 1 1.1 0.3zm-0.5 4.3c0.4 0 0.6-0.3 0.5-0.8l-0.2-0.5a0.8 0.8 0 0 0-0.5-0.2h-0.4a30 30 0 0 0-4.2 0 40.3 40.3 0 0 1-5 0.1 15.8 15.8 0 0 1-2.4 0h-0.5l-2.2 0.2h-2.4a72.8 72.8 0 0 0-6.4 0.3v1c0 0.1 0 0.2 0.2 0.2h5.2a70.4 70.4 0 0 1 10.3-0.1 347.9 347.9 0 0 0 8-0.2zm0.2 1.5c0.1-0.3 0-0.6-0.4-0.7h-0.5a72.6 72.6 0 0 1-7.2 0.1h-6.4l-1.6 0.1h-2.6l-0.8 0.1a83.6 83.6 0 0 1-3.6 0h-0.7v0.6a0.4 0.4 0 0 0 0 0.4 0.4 0.4 0 0 0 0.4 0.1h2.2a333.3 333.3 0 0 1 11.4 0l3-0.1h4.2l1-0.1h1a0.8 0.8 0 0 0 0.6-0.5zm-23.1-4.9c-0.4 0.1-0.6 0.3-0.5 0.7 0 0.2 0 0.3 0.2 0.4l0.4 0.2a24.8 24.8 0 0 0 2 0.1h8.4a21.6 21.6 0 0 1 3-0.1 43.3 43.3 0 0 0 3.3-0.1h0.7a86 86 0 0 1 5.7-0.2 0.2 0.2 0 0 0 0.1-0.2c0-0.3 0-0.7-0.2-1h-0.3a3 3 0 0 1-0.3 0h-0.1a82.7 82.7 0 0 0-10.8 0 74.5 74.5 0 0 0-6.8 0l-4.6 0.2zm10.2 23.7v-1.4a164 164 0 0 0-0.2-6.7v-1.3a291.3 291.3 0 0 0-0.4-6.5v-0.9c0-0.3-0.2-0.4-0.6-0.4-0.2 0-0.4 0.1-0.4 0.3v3.9a58.1 58.1 0 0 0 0.2 5.2 1431.5 1431.5 0 0 1 0.1 7.7v0.4l0.1 0.3c0 0.1 0 0.2 0.2 0.3l0.3 0.2 0.5-0.1 0.2-0.6v-0.3zm1.7 1 0.5-0.3v-0.6a111.2 111.2 0 0 0 0-4.3 2534.8 2534.8 0 0 1-0.6-12.5 0.6 0.6 0 0 0-0.4-0.5 0.7 0.7 0 0 0-0.6 0c-0.2 0.1-0.3 0.2-0.3 0.4a30.6 30.6 0 0 0 0.1 5.2 160.7 160.7 0 0 0 0.2 6.6 257 257 0 0 1 0.3 6h0.7a0.1 0.1 0 0 0 0.1 0zm1.7-0.2h0.5l0.2-0.6a48.5 48.5 0 0 0-0.1-5.4v-4.4a131.9 131.9 0 0 1-0.2-7l-0.1-0.2a0.2 0.2 0 0 0-0.2 0l-0.3-0.2c-0.4 0-0.6 0.1-0.6 0.4l-0.1 0.9v1.8l0.2 4.8a601.2 601.2 0 0 1 0.5 9.8 0.3 0.3 0 0 0 0.2 0.1zm64-22.3-0.2-0.4a2 2 0 0 1-0.3-0.4v-0.2h-0.1v-0.1a0.1 0.1 0 0 0 0-0.1 0.6 0.6 0 0 1-0.2-0.4v-0.6h0.1v-0.1a0.3 0.3 0 0 1 0.2-0.2 0.3 0.3 0 0 0 0.1-0.3l0.3-0.3 0.3-0.2 0.3-0.4 0.3-0.3 0.2-0.1 0.2-0.2 0.2-0.1 0.3-0.1 0.2-0.4 0.4-0.2h0.1l0.2-0.1 0.2-0.2 0.4-0.2a9 9 0 0 0 0.5-0.3h0.1a0.3 0.3 0 0 0 0.2-0.2 0.4 0.4 0 0 1 0.2 0 0.3 0.3 0 0 0 0.3-0.2 0.3 0.3 0 0 1 0.2 0l0.2-0.2 0.3-0.1v-0.1a0.2 0.2 0 0 1 0.1-0.1h0.4a0.3 0.3 0 0 0 0.2-0.2h0.2l0.2-0.1h0.2v-0.1h0.3l0.6-0.3 0.3-0.1h0.1l0.4-0.2 0.4-0.1h0.2l0.8-0.3c0.3 0 0.6 0 1-0.2h0.5v-0.1h0.5v-0.1h0.7v-0.1h0.1a32.6 32.6 0 0 0 2.2-0.2h0.6a13.4 13.4 0 0 0 1 0h0.2v0.1h0.2v0.1h0.1a0.2 0.2 0 0 0 0.2 0 0.3 0.3 0 0 1 0.2 0.1l0.2 0.2 0.5 0.4a9.5 9.5 0 0 1 0.8 0.8v0.1h0.1v0.2a0.1 0.1 0 0 0 0 0.1l0.1 0.1 0.2 0.1v0.4l0.1 0.1v0.2l0.2 0.5 0.2 0.6v0.2a0.2 0.2 0 0 1 0.1 0.2v0.2l0.1 0.8v1l-0.3 0.7c-0.2 0.3-0.3 0.6-0.3 1-0.4 0.3-0.7 0.7-1 1.3l-0.9 0.8a7.2 7.2 0 0 1-1 1.1 1.6 1.6 0 0 1-0.6 0.4l-0.3 0.1-0.2 0.3-0.2 0.2-0.3 0.2-0.3 0.1-0.2 0.2-0.2 0.3-0.3 0.1a1 1 0 0 0-0.3 0.2l-0.1 0.1v0.1h-0.5l-0.1 0.3-0.3 0.2-1.1 0.7c-0.4 0.1-0.7 0.4-1 0.6l1 0.7 0.9 0.8 0.1 0.2 0.2 0.3a0.2 0.2 0 0 0 0.1 0.1 0.2 0.2 0 0 1 0.1 0.1v0.4l0.3 0.3 0.2 0.4 0.4 1.4v0.2l0.2 0.4v0.3a4.3 4.3 0 0 1 0 1.7v0.8h-0.1v0.2l-0.1 0.2-0.5 0.5-0.2 0.5a30.4 30.4 0 0 1-3.4 3 0.2 0.2 0 0 0-0.1 0.2h-0.3l-0.1 0.2h-0.3a1 1 0 0 0-0.3 0.2l-0.1 0.1h-0.1a0.2 0.2 0 0 1-0.2 0.2h-0.2a20.3 20.3 0 0 1-4 0.9h-0.4a0.6 0.6 0 0 1-0.4 0.2h-0.8a22 22 0 0 0-1.9 0v0.3l-0.1 0.1h-1a1 1 0 0 1-0.7-0.3h-0.2l-0.3-0.3-0.4-0.1-0.2-0.2h-0.3v-0.2h-0.2a12 12 0 0 0-0.5-0.3l-0.4-0.3-0.1-0.2-0.1-0.3-0.3-0.3v-0.1l-0.2-0.6v-0.7c0.3 0 0.6 0 0.9 0.2h0.9l0.1-0.2v-0.7h0.1v-0.9a37.9 37.9 0 0 1 0.6-4.4l0.1-0.1v-0.9l0.1-0.3v-0.4l0.2-0.4a0.2 0.2 0 0 0 0-0.1v-0.3l0.1-0.4a2 2 0 0 1 0.2-0.7v-0.3l0.2-0.8 0.1-0.1v-0.3l0.1-0.3a5.7 5.7 0 0 1 0.3-1v-0.1l0.2-0.1v-0.9a0.1 0.1 0 0 1 0.2 0v-0.2l0.2-0.3h0.1v-0.1l0.1-0.3 0.3-0.2v-0.4a0.4 0.4 0 0 1 0-0.3c0.2-0.1 0.2-0.3 0.2-0.4l0.1-0.5a0.4 0.4 0 0 1 0.1-0.3l0.2-0.2 0.1-0.2v-0.2l0.3-0.3c-0.1 0-0.1 0 0-0.1v-0.1a0.2 0.2 0 0 0 0.1-0.1l-0.1-0.2h0.1v-0.2l0.2-0.2a0.2 0.2 0 0 0 0-0.1l-0.7 0.4a3 3 0 0 1-0.7 0.4zm-0.6 8.8a0.2 0.2 0 0 1-0.1 0.2l-0.1 0.2v0.1l-0.2 0.2 0.2 0.1h-0.2v0.2c0.1 0 0.1 0.1 0 0.2l-0.1 0.1v0.1l-0.2 0.3v0.9l-0.1 0.5v0.1a0.2 0.2 0 0 0 0 0.2v0.3h-0.1v0.8a0.1 0.1 0 0 1 0 0.2v0.2h0.2l0.1-0.2v-0.7l0.4-2c0-0.7 0.2-1.4 0.4-2h-0.3zm0.2 3a0.2 0.2 0 0 1 0 0.1 0.2 0.2 0 0 1 0 0.2c-0.1 0-0.1 0.1 0 0.1h0.1l0.1 0.1c0 0.1-0.1 0.2 0 0.2l0.1 0.1c-0.1 0.1-0.2 0-0.2 0l-0.2-0.1v0.4l-0.2 0.4v-0.2h0.2a0.1118 0.1118 0 0 1 0.1-0.2v0.2a0.3 0.3 0 0 0-0.2 0.1 0.4 0.4 0 0 0 0 0.4h-0.1v0.5a12.5 12.5 0 0 1 0 1.2v0.5a0.8 0.8 0 0 1 0.4 0 0.1 0.1 0 0 0 0.1 0v-0.6c0.1 0 0.2 0 0.1-0.1a0.3 0.3 0 0 1 0-0.3v-0.7h0.2v-0.7a3 3 0 0 1 0.2-1.2 0.4 0.4 0 0 0-0.1-0.4v-0.1l-0.1 0.1-0.2 0.1a0.4 0.4 0 0 1-0.3-0.1zm0.1-3v-0.4c0-0.1 0-0.2-0.2-0.1 0 0.2 0 0.4 0.2 0.4zm0.1-0.6v-0.3h-0.2v0.3zm0.5 3h-0.3a0.4 0.4 0 0 1 0.3 0.1v-0.2l0.1-0.2-0.3 0.1c0 0.1 0.1 0.2 0 0.2zm2.1-8.2-0.2 0.1a0.1 0.1 0 0 0 0 0.2c0.1 0 0.1 0 0 0v0.1a0.2 0.2 0 0 0-0.1 0.2l-0.2 0.3v0.5h-0.3v0.5l-0.2 0.3-0.1 0.2-0.2 0.6-0.2 0.4v0.1c-0.1 0.2-0.2 0.3-0.1 0.5v0.4l-0.2 0.1v0.1a0.1 0.1 0 0 0-0.1 0.1v0.6a3.7 3.7 0 0 1-0.1 0.5l-0.1 0.1-0.1 0.2v0.2h0.2a0.3 0.3 0 0 0 0.1-0.2 0.4 0.4 0 0 0-0.1-0.3h0.2a0.2 0.2 0 0 1 0.1-0.2 0.3 0.3 0 0 0 0-0.2v-0.1l0.1-0.1v-0.4h0.3v-0.4c-0.1 0 0-0.2 0-0.4 0.2 0 0.3 0 0.2-0.1a0.2 0.2 0 0 1 0-0.2 0.2 0.2 0 0 1 0.2 0v-0.7c0.3 0 0.4-0.1 0.3-0.2a0.5 0.5 0 0 1 0-0.5h0.2v-0.4l0.1-0.1h0.1v-0.5l0.2-0.2v-0.3l0.2-0.2v-0.2c0.2 0 0.2-0.1 0.1-0.3h-0.1a0.3 0.3 0 0 0-0.2-0.2zm-1.8 7.7v-0.4l-0.2 0.2c-0.1 0-0.2 0-0.1 0.2zm0-0.7h0.1a0.3 0.3 0 0 1 0.1-0.3h-0.2a0.1 0.1 0 0 0-0.1 0.1c0.1 0 0.1 0 0 0.2zm0.2-4.2a0.3 0.3 0 0 1 0.1-0.3c0.1-0.1 0-0.2-0.2-0.2v0.3zm0.4-1 0.2-0.8-0.3 0.6a3 3 0 0 0-0.3 0.6 0.2 0.2 0 0 0 0.2 0zm9.5 5.7v-0.2h-0.2l-0.3-0.1h-0.2v-0.2h-0.2a0.3 0.3 0 0 0-0.4 0 0.2 0.2 0 0 1-0.2-0.1l-0.1-0.1h-0.2v-0.1a0.3 0.3 0 0 0-0.2 0l-0.1 0.1v-0.1a45.3 45.3 0 0 1-3.5 0l-0.8 0.1-0.9 0.2a15.7 15.7 0 0 0-0.4 1.8l-0.2 0.7-0.2 0.6-0.1 0.5-0.1 0.3a0.1 0.1 0 0 0-0.1 0.1v0.4a0.1 0.1 0 0 1 0 0.1 0.2 0.2 0 0 0-0.2 0.2 0.2 0.2 0 0 1 0 0.3v0.7l-0.2 0.1-0.1 0.6-0.1 0.4a0.2 0.2 0 0 0-0.1 0.2 0.2 0.2 0 0 1 0 0.3l0.4-0.1 0.3-0.2h0.5l0.6-0.3 0.5-0.2 0.2-0.1h0.1a0.1 0.1 0 0 0 0.1 0l0.3-0.3h0.2l0.4-0.2h0.3a0.2 0.2 0 0 0 0-0.2 0.2 0.2 0 0 1 0.2 0l0.3-0.2h0.3v-0.2h0.2l0.2-0.1v-0.1a25.4 25.4 0 0 0 2.1-1.4l0.5-0.4h0.1l0.1-0.1a0.2 0.2 0 0 0 0-0.2 0.2 0.2 0 0 1 0.1-0.1l0.5-0.3 0.1-0.2v-0.2a0.3 0.3 0 0 1 0.2-0.2l0.2-0.2 0.1-0.3 0.1-0.4 0.2-0.2v-0.3h-0.1zm-8.3-7.8c0 0.3 0.1 0.4 0.5 0.3l0.1-0.3a0.2 0.2 0 0 0-0.2 0c0 0.1-0.1 0-0.2 0h0.1v-0.1h-0.3zm0.5-0.6 0.2 0.2a0.1 0.1 0 0 0 0-0.2c0-0.1-0.1 0-0.2 0zm0.5-4.4v0.2c-0.1 0-0.2 0-0.2 0.2v0.5l0.2-0.1a0.2 0.2 0 0 1 0-0.3l0.2-0.2 0.2-0.3 0.3-0.6c0-0.2 0.2-0.4 0.3-0.5v-0.2l-0.2-0.1-0.3 0.6c0 0.2-0.2 0.3-0.3 0.4zm1.3 0.9v0c0.1 0 0.1 0 0-0.1v-0.2h0.3v-0.2l-0.1-0.2v-0.2l-0.2 0.2c0.1 0.1 0.1 0.1 0 0a0.9 0.9 0 0 0-0.5-0.1 0.3 0.3 0 0 1-0.1 0.2l-0.2 0.2-0.2 0.6v0.2h-0.3v0.3l0.3-0.1 0.1-0.2c0-0.2 0.2-0.3 0.4-0.2v0.1h0.1a0.4 0.4 0 0 1 0.1-0.4h0.3zm-1 2.1c0.1 0 0.2 0 0.3-0.2l-0.1-0.2-0.1 0.2h-0.1l-0.1-0.2-0.2 0.1 0.2 0.1v0.2zm0.2-1.2v0.4l0.1 0.3v-0.2h0.2l0.2-0.2a0.2 0.2 0 0 1-0.1-0.1 0.2 0.2 0 0 1 0-0.1c0-0.1 0-0.2-0.2-0.1v0.2zm0.8-1.4v0.3a0.6 0.6 0 0 1-0.5 0.2c0-0.3 0-0.4 0.2-0.4h0.3zm0.9 0.2a0.2 0.2 0 0 0 0 0.2l0.2 0.2v0.7c-0.2 0.1-0.3 0.3-0.3 0.5l0.1 0.2a0.4 0.4 0 0 0 0 0.3 1 1 0 0 0-0.3 0.7l-0.1 0.6a0.4 0.4 0 0 1 0 0.4h-0.2v0.2a4.1 4.1 0 0 0-0.2 1h-0.1l-0.1 0.2v0 0.4l-0.1 0.2v0.1a0.3 0.3 0 0 1 0 0.3 0.3 0.3 0 0 0-0.2 0.2v0.1h0.2v0.1l-0.1 0.5-0.2 0.5a0.4 0.4 0 0 0 0.5-0.2l0.2-0.3a0.2 0.2 0 0 1 0.2 0 0.2 0.2 0 0 0 0.1 0l0.2-0.1h0.1l0.2-0.3 0.2-0.2h0.3v-0.2h0.2l0.2-0.2v-0.2h0.4a0.2 0.2 0 0 0 0-0.1l0.2-0.2h0.2l0.2-0.2a1 1 0 0 1 0.3-0.2h0.1l0.1-0.1 0.1-0.2a0.2 0.2 0 0 1 0.2-0.1 0.2 0.2 0 0 0 0.2 0 0.1 0.1 0 0 0 0-0.2h0.1a0.2 0.2 0 0 1 0.2-0.1 0.2 0.2 0 0 0 0.2-0.1v-0.2a0.2 0.2 0 0 1 0.3 0 0.2 0.2 0 0 0 0.1-0.1l0.3-0.2 0.2-0.3 0.2-0.1 0.3-0.2v-0.1l0.1-0.1a0.2 0.2 0 0 1 0.2 0 0.2 0.2 0 0 0 0.2-0.2l0.2-0.2 0.2-0.1a0.4 0.4 0 0 1 0.2-0.3c0.2 0 0.2 0 0.2-0.2l0.4-0.2 0.4-0.3 0.3-0.4 0.2-0.1 0.1-0.2h0.1v-0.2l0.2-0.1a0.1 0.1 0 0 0 0.1 0 0.1 0.1 0 0 0 0-0.2l0.6-0.6a12.9 12.9 0 0 0 0.6-0.5v-0.1h0.1l0.3-0.4 0.3-0.3 0.7-1h-0.4l-0.3-0.1h-0.1v-0.1h-0.4a8 8 0 0 1-1.5 0.2 7.8 7.8 0 0 0-2.2 0.1l-0.6 0.1-0.7 0.1-0.4 0.1h-0.3v0.1h-0.1l-0.9 0.2a5.5 5.5 0 0 0-0.8 0.2l-0.1 0.1-0.5 0.1-0.3 0.1s-0.2 0-0.3 0.2h-0.2c0 0.4 0 0.7-0.2 0.8v0.5s0 0.1-0.1 0h-0.1v-0.1l-0.1-0.2-0.1 0.1zm3.2-4.9a1 1 0 0 1-0.5 0.3c-0.3 0-0.5 0-0.7 0.2a1.8 1.8 0 0 0-0.5 0.2h-0.2a0.2 0.2 0 0 0-0.2 0.1h-0.1l-0.1 0.2a0.2 0.2 0 0 1-0.2 0 0.2 0.2 0 0 0-0.2 0v0.1l-0.6 0.3-0.3 0.1h-0.2v0.2h-0.2l-0.3 0.3v0.2a0.4 0.4 0 0 0 0.4-0.1l0.2-0.2 0.3-0.1 0.4-0.1 0.1-0.2h0.3l0.3-0.2h0.2l0.6-0.3v-0.1l1.3-0.4 1.2-0.4 0.1-0.1zm-3.5 4.4-0.1-0.1v-0.1 0.3h-0.2v0.1l0.2-0.2zm6.1 14.9-0.2 0.3-0.4 0.5v-0.1l-0.4 0.2v0.1a0.1 0.1 0 0 1 0 0.1c0 0.1 0 0-0.1 0h-0.1a0.2 0.2 0 0 0-0.1 0.2h-0.1l-0.2 0.2a0.3 0.3 0 0 1 0 0.2h-0.2l-0.1 0.1v0l-0.4 0.4-0.3 0.2a1 1 0 0 1-0.5 0.4h-0.1l-0.1 0.1v0.1h-0.2v0.1h-0.2v0.1l-0.3 0.2-0.3 0.3h-0.2l-0.1 0.2h-0.2l-0.1 0.1h-0.2v0.1h-0.1l-0.1 0.1v0.1h-0.4c-0.2 0.2-0.3 0.3-0.2 0.5l0.8-0.2 0.5-0.4h0.4a0.2 0.2 0 0 1 0-0.2h0.2a0.2 0.2 0 0 0 0.2-0.1v-0.1a0.4 0.4 0 0 0 0.4-0.2l0.2-0.2h0.2l0.2-0.1 0.1-0.3h0.2l0.1-0.1v-0.1l0.4-0.3 0.3-0.3 0.2-0.1 0.2-0.2 0.2-0.1v-0.1a0.2 0.2 0 0 1 0-0.2l0.4-0.2c0-0.2 0.2-0.3 0.3-0.3l0.3-0.3v-0.2a0.3 0.3 0 0 1 0.1-0.2h0.2l0.2-0.3c0.1-0.1 0-0.2 0-0.2l-0.4 0.1zm-3.2 3.9v0.2h-0.2l-0.2 0.1v0.1h-0.2l-0.2 0.2-0.7 0.4c-0.2 0.2-0.4 0.2-0.7 0.3v0.2c0.2 0 0.2 0.1 0.2 0.3 0.4 0 0.8-0.2 1.1-0.4l0.9-0.6a0.4 0.4 0 0 1-0.2-0.3l0.3 0.1v-0.4c0 0.1 0 0.2 0.2 0.1l0.2-0.2v-0.2l-0.2 0.1h0.1zm1-0.7 0.1 0.2h0.1l0.2-0.2h0.1-0.4zm0.6-0.5v0.1h0.4v-0.2l-0.1 0.1h-0.2zm7.2-22.5a0.2 0.2 0 0 0 0-0.2h-0.3l-0.8-0.2h-0.1a0.1 0.1 0 0 0-0.1 0h-1.4a0.2 0.2 0 0 0-0.2 0v0.2a0.1 0.1 0 0 1 0.2 0c0.4 0 0.7 0 1 0.2h1c0.1 0.2 0.2 0.2 0.3 0.2l0.2 0.1v0.1a0.2 0.2 0 0 0 0.2 0h0.2v-0.2c0-0.1 0-0.2-0.2-0.1z" fill="#231f20"/><path d="m116.4 12.4a3.4 3.4 0 0 0-1.7-2.3c-1.7-1-4.1-0.4-5.1 1.3a52.9 52.9 0 0 0-6.7 16.5l-0.3 1.6c-0.2 0.8-0.2 1.5 0 2.3 0.1 0.5 0.7 2.2 0 0.2a4 4 0 0 0 4.8 2.6c0.8-0.2 1.5-0.7 2-1.4l0.3 4.6c-0.4 1-0.3 2 0.2 3.2l0.8 1.5c0.9 1.8 3.3 2.3 5 1.6 2-0.8 2.7-2.7 2.4-4.7l-0.1-0.8-0.1-0.7v-0.4a56.7 56.7 0 0 1-0.3-11.8l0.1-5 0.1-0.6 0.3-1.3 0.1-0.3c0.4-0.5 0.7-1.1 0.8-1.7 0.2-1 0.1-1.9-0.4-2.7a3.7 3.7 0 0 0-2.2-1.7z" fill="#f7b511"/><path d="m105 20.5h1c1.7 0.4 2.5 0.8 2.5 1.2-0.9 1.3-2.4 1.9-4.6 1.9-3 1.2-4.6 2.9-4.6 4.9 0 3 1.6 4.8 4.8 5.2 2.6-0.3 4-1.9 4-4.6 0.5-4.8 1-7.1 1.6-7.1h1.5l0.2 2.2-0.2 0.6c0.1 1.6 0.3 2.7 0.6 3-0.2 0.9-0.4 1.8-0.4 2.7l0.2 0.4-0.2 0.8c0 1.1 0.3 3 1 5.5-0.2 0-0.7 0.8-1.2 2.4l-1 0.2c-1 0-1.9-1.2-2.6-3.6v-0.4h-0.2c-1.7 1.7-3.4 2.6-5.2 2.6-2.3 0-4-1.2-5.2-3.7l-0.4-3h0.2a0.2 0.2 0 0 0 0-0.2 0.2 0.2 0 0 0-0.2 0c0.4-3.5 1.1-5.7 2-6.7 2.7-2.9 4.8-4.3 6.3-4.3z" fill="#231f20"/><path d="m114 8.3c0-0.5 0.2-1 0.5-1.5 0.5-1 1.2-2 1.9-3l1.4-1.7 0.7-1" stroke="#3f3b3c" stroke-width="2"/><path d="m39.7 48.7v-0.9c0-0.5-0.2-1-0.5-1.5s-0.7-0.8-1.2-1.2l-0.8-0.6-0.5-0.4c-0.9-0.5-1.7-0.8-2.7-1-0.5-0.2-1-0.3-1.7-0.3s-1.5-0.2-2.2 0c-0.3 0.2-0.6 0.3-0.7 0.5s-0.1 0.6 0 0.8c0.1 0.4 0.7 0.7 1 1l1.4 0.4c1.6 0.4 3.1 0.4 4.7 0.5l2.3 0.1 2.7 0.4m-12.6-26v1.5l-0.1 1.4-0.9 1.5c0 0.2-0.2 0.3-0.3 0.5l-0.1 0.2" stroke="#3f3b3c"/></g></svg>
